<svg width="473" height="142" viewBox="0 0 473 142" fill="none" xmlns="http://www.w3.org/2000/svg">
<path fill-rule="evenodd" clip-rule="evenodd" d="M142 17C142 26.3888 134.389 34 125 34C121.327 34 117.925 32.835 115.146 30.8542L95.1291 50.8709C98.173 54.5805 100 59.3269 100 64.5C100 75.1823 92.2094 84.0451 82 85.7165V109.372C89.4315 110.977 95 117.588 95 125.5C95 134.613 87.6127 142 78.5 142C69.3873 142 62 134.613 62 125.5C62 117.237 68.0736 110.393 76 109.188V85.8562C66.8006 84.7909 59.371 77.9187 57.4717 69H34.416C32.4302 76.4844 25.6092 82 17.5 82C7.83502 82 0 74.165 0 64.5C0 54.835 7.83502 47 17.5 47C26.6597 47 34.1758 54.0372 34.9366 63H57.0515C57.3482 58.6942 58.9127 54.7372 61.3744 51.4994L47.9783 38.7412C45.8374 40.1682 43.2659 41 40.5 41C33.0442 41 27 34.9558 27 27.5C27 20.0442 33.0442 14 40.5 14C47.9558 14 54 20.0442 54 27.5C54 30.0175 53.3109 32.3741 52.111 34.3914L65.6354 47.2719C69.2227 44.5889 73.6758 43 78.5 43C83.0359 43 87.2436 44.4046 90.7121 46.8026L110.946 26.5683C109.087 23.8427 108 20.5483 108 17C108 7.61116 115.611 0 125 0C134.389 0 142 7.61116 142 17ZM78.5 80C87.0604 80 94 73.0604 94 64.5C94 55.9396 87.0604 49 78.5 49C69.9396 49 63 55.9396 63 64.5C63 73.0604 69.9396 80 78.5 80Z" fill="#7202E6"/>
<path d="M185.258 74.6083H195.168V80.5681H177V10.4319H185.258V74.6083Z" fill="#F5F5F5"/>
<path d="M201.77 10.4319H210.028V80.5681H201.77V10.4319Z" fill="#F5F5F5"/>
<path d="M244.523 35.826H236.146V19.1557C236.146 16.4781 234.967 16.0462 232.489 16.0462H231.545C229.186 16.0462 227.888 16.4781 227.888 19.1557V71.8443C227.888 74.5219 229.186 75.0401 231.545 75.0401H232.607C234.613 75.0401 236.146 74.8674 236.146 71.8443V47.1411H233.315V41.0949H244.523V71.6715C244.523 77.6314 240.275 81 232.725 81H231.427C227.77 81 224.939 80.2226 222.815 78.5815C220.574 76.854 219.512 74.5219 219.512 71.6715V19.2421C219.512 16.3917 220.574 14.146 222.815 12.4185C224.939 10.7774 227.77 10 231.427 10H232.607C236.264 10 239.096 10.7774 241.219 12.4185C243.461 14.0596 244.523 16.3054 244.523 19.2421V35.826Z" fill="#F5F5F5"/>
<path d="M270.712 10.4319H279.088V80.5681H270.712V47.0547H262.218V80.5681H253.959V10.4319H262.218V41.0085H270.712V10.4319Z" fill="#F5F5F5"/>
<path d="M285.691 10.4319H308.696V16.4781H301.381V80.5681H293.005V16.4781H285.691V10.4319Z" fill="#F5F5F5"/>
<path d="M332.464 10.4319H340.84V80.5681H332.464V47.0547H323.97V80.5681H315.711V10.4319H323.97V41.0085H332.464V10.4319Z" fill="#F5F5F5"/>
<path d="M371.981 12.5049C374.105 14.0596 375.167 16.3054 375.167 19.2421V71.5852C375.167 77.545 370.919 81 363.369 81H362.189C358.532 81 355.583 80.1363 353.459 78.4951C351.336 76.854 350.274 74.6083 350.274 71.5852V19.2421C350.274 16.3054 351.336 14.0596 353.459 12.5049C355.465 10.8637 358.414 10 362.189 10H363.251C366.908 10 369.74 10.8637 371.981 12.5049ZM366.908 71.7579V19.1557C366.908 16.4781 365.611 16.0462 363.133 16.0462H362.307C359.83 16.0462 358.532 16.4781 358.532 19.1557V71.7579C358.532 74.4355 359.83 74.9538 362.307 74.9538H363.251C365.257 74.9538 366.908 74.781 366.908 71.7579Z" fill="#F5F5F5"/>
<path d="M401.241 10.4319H409.617V71.5852C409.617 77.545 405.37 81 397.819 81H396.522C392.864 81 390.033 80.1363 387.91 78.4951C385.668 76.854 384.606 74.6083 384.606 71.5852V10.4319H392.982V71.7579C392.982 74.4355 394.162 74.9538 396.64 74.9538H397.701C399.707 74.9538 401.241 74.781 401.241 71.7579V10.4319Z" fill="#F5F5F5"/>
<path d="M442.413 48.264C443.002 49.9915 443.356 52.0645 443.356 54.5693V71.5852C443.356 77.545 439.109 81 431.559 81H430.379C426.722 81 423.773 80.1363 421.649 78.4951C419.408 76.7676 418.346 74.4355 418.346 71.5852V50.0779H426.722V71.7579C426.722 74.4355 428.02 74.9538 430.497 74.9538H431.441C433.447 74.9538 434.98 74.781 434.98 71.7579V54.9148C434.98 52.1509 434.744 50.6825 434.39 49.9915C434.036 49.3005 433.447 48.1776 431.677 46.5365L423.301 38.7628C421.531 37.208 420.351 35.826 419.762 34.5304C419.172 33.4075 418.818 31.5937 418.818 29.1752V19.2421C418.818 16.219 419.88 13.9732 421.885 12.5049C424.009 10.8637 426.84 10 430.379 10H431.441C434.98 10 437.812 10.8637 439.935 12.5049C441.941 14.146 443.002 16.3917 443.002 19.2421V35.7397H434.626V19.1557C434.626 16.1326 433.211 16.0462 431.323 16.0462H430.497C428.61 16.0462 427.076 16.1326 427.076 19.1557V29.0024C427.076 31.1618 427.43 32.1119 427.548 32.4574C427.902 32.8029 428.138 33.6667 429.907 35.0487L430.025 35.135L438.401 42.9951C440.407 44.809 441.705 46.6229 442.413 48.264Z" fill="#F5F5F5"/>
<path d="M460.377 74.6083H473V80.5681H452.119V10.4319H472.646V16.4781H460.377V41.0085H471.584V47.0547H460.377V74.6083Z" fill="#F5F5F5"/>
<path d="M215.671 115.321L223.509 98.2555H227.533L214.7 126L210.954 139.847H207L210.746 126L213.035 98.2555H217.058L215.671 115.321Z" fill="#F5F5F5"/>
<path d="M238.494 98H239.188C241.199 98 242.726 98.4599 243.627 99.3796C244.529 100.248 244.807 101.526 244.39 103.212L235.65 134.737C234.61 138.263 231.974 140 227.604 140H226.91C224.898 140 223.372 139.54 222.47 138.62C221.569 137.701 221.291 136.423 221.777 134.737L230.448 103.212C230.864 101.526 231.835 100.248 233.292 99.3796C234.818 98.4599 236.552 98 238.494 98ZM231.627 134.839L240.436 103.161C240.922 101.27 239.951 100.861 238.286 100.861H237.8C236.205 100.861 234.956 101.27 234.471 103.161L225.661 134.839C225.176 136.73 226.147 137.139 227.742 137.139H228.367C229.962 137.139 231.141 136.73 231.627 134.839Z" fill="#F5F5F5"/>
<path d="M250.998 134.839L261.264 98.2555H265.287L255.021 134.737C254.119 138.212 251.206 140 246.974 140H246.281C244.269 140 242.882 139.54 242.049 138.62C241.147 137.752 240.87 136.423 241.286 134.737L251.344 98.2555H255.298L245.032 134.839C244.477 136.73 245.518 137.139 247.182 137.139H247.737C249.61 137.139 250.512 136.474 250.998 134.839Z" fill="#F5F5F5"/>
<path d="M283.132 103.314L280.08 114.504C279.594 116.292 278.623 117.365 277.513 118.131C278.276 118.898 278.623 119.92 278.137 121.708L273.143 139.745H269.189L274.253 121.555C274.6 120.124 273.975 119.562 272.033 119.562H268.773L263.223 139.745H259.408L270.784 98.2555H277.999C280.01 98.2555 281.467 98.7153 282.438 99.5839C283.478 100.453 283.687 101.73 283.132 103.314ZM273.975 101.168L269.605 116.65H272.865C274.738 116.65 275.571 116.19 276.056 114.606L279.247 103.212C279.733 101.73 279.108 101.168 277.166 101.168H273.975Z" fill="#F5F5F5"/>
<path d="M285.826 139.745L297.34 98.2555H308.092L307.329 101.168H300.531L296.161 116.65H302.057L301.156 119.562H295.259L289.641 139.745H285.826Z" fill="#F5F5F5"/>
<path d="M301.679 139.745L313.055 98.2555H317.078L305.424 139.745H301.679Z" fill="#F5F5F5"/>
<path d="M334.954 103.314L331.901 114.504C331.416 116.292 330.445 117.365 329.335 118.131C330.098 118.898 330.445 119.92 329.959 121.708L324.965 139.745H321.011L326.075 121.555C326.421 120.124 325.797 119.562 323.855 119.562H320.595L315.045 139.745H311.23L322.606 98.2555H329.82C331.832 98.2555 333.289 98.7153 334.26 99.5839C335.3 100.453 335.508 101.73 334.954 103.314ZM325.797 101.168L321.427 116.65H324.687C326.56 116.65 327.393 116.19 327.878 114.606L331.069 103.212C331.555 101.73 330.93 101.168 328.988 101.168H325.797Z" fill="#F5F5F5"/>
<path d="M347.323 117.723C348.225 118.898 348.641 119.92 348.71 120.788C348.918 121.759 348.78 122.934 348.294 124.518L345.519 134.737C344.479 138.263 341.843 140 337.542 140H336.779C334.906 140 333.38 139.54 332.34 138.62C331.438 137.701 331.161 136.423 331.646 134.737L334.976 122.168H338.999L335.531 134.839C335.045 136.73 336.016 137.139 337.612 137.139H338.236C339.831 137.139 341.011 136.73 341.496 134.839L344.271 124.672C344.618 123.292 344.895 122.27 344.687 121.606C344.687 121.044 344.34 120.277 343.577 119.409V119.358L339.831 114.708C339.068 113.737 338.722 113.022 338.513 112.255C338.305 111.54 338.375 110.518 338.722 109.19L340.386 103.212C340.803 101.628 341.774 100.35 343.23 99.3796C344.618 98.4599 346.283 98 348.225 98H348.918C350.861 98 352.317 98.4599 353.289 99.3796C354.121 100.299 354.329 101.577 353.913 103.212L351.277 112.766H347.323L349.959 103.161C350.514 101.117 349.265 100.861 348.017 100.861H347.531C345.658 100.861 344.895 101.526 344.41 103.161L342.745 109.088C342.398 110.365 342.467 110.927 342.537 111.285C342.606 111.642 342.745 112.102 343.508 112.971H343.577L347.323 117.723Z" fill="#F5F5F5"/>
<path d="M359.076 101.168L359.909 98.2555H372.672L371.84 101.168H367.4L356.094 139.745H352.278L363.446 101.168H359.076Z" fill="#F5F5F5"/>
<path d="M387.516 101.168L388.348 98.2555H397.435L387.446 134.788C386.128 139.336 382.105 140 379.816 140H379.122C376.903 140 373.157 139.336 374.475 134.788L377.874 122.168H381.828L378.359 134.891C377.804 136.934 378.845 137.139 380.024 137.139H380.579C381.689 137.139 382.868 136.934 383.423 134.891L392.579 101.168H387.516Z" fill="#F5F5F5"/>
<path d="M409.743 98H410.437C412.449 98 413.975 98.4599 414.877 99.3796C415.778 100.248 416.056 101.526 415.64 103.212L406.899 134.737C405.859 138.263 403.223 140 398.853 140H398.159C396.147 140 394.621 139.54 393.72 138.62C392.818 137.701 392.54 136.423 393.026 134.737L401.697 103.212C402.113 101.526 403.084 100.248 404.541 99.3796C406.067 98.4599 407.801 98 409.743 98ZM402.876 134.839L411.686 103.161C412.171 101.27 411.2 100.861 409.535 100.861H409.05C407.454 100.861 406.206 101.27 405.72 103.161L396.911 134.839C396.425 136.73 397.396 137.139 398.992 137.139H399.616C401.211 137.139 402.39 136.73 402.876 134.839Z" fill="#F5F5F5"/>
<path d="M429.114 117.978C430.016 118.745 430.432 119.869 429.946 121.759L426.27 134.686C425.715 136.321 424.952 137.496 423.357 138.467C421.9 139.336 420.235 139.745 418.223 139.745H411.079L422.594 98.2555H429.53C431.473 98.2555 432.999 98.6642 434.039 99.5328C434.941 100.504 435.288 101.679 434.733 103.314L431.542 114.453C431.056 116.088 430.155 117.212 429.114 117.978ZM427.588 114.555L430.848 103.212C431.334 101.73 430.709 101.168 428.698 101.168H425.854L421.414 116.65H424.397C426.547 116.65 427.241 115.934 427.588 114.555ZM415.588 136.832H418.917C420.859 136.832 421.761 136.372 422.247 134.788L425.993 121.606C426.478 120.124 425.784 119.562 423.842 119.562H420.513L415.588 136.832Z" fill="#F5F5F5"/>
</svg>
